<svg aria-hidden="true" style="position: absolute; width: 0; height: 0; overflow: hidden;" version="1.1" xmlns="http://www.w3.org/2000/svg" xmlns:xlink="http://www.w3.org/1999/xlink">
<defs>
<symbol id="icon-drink" viewBox="0 0 20 20">
<title>drink</title>
<path d="M17.538 2.639c0.394-0.545 0.462-1.639 0.462-1.639h-16c0 0 0.068 1.094 0.462 1.639l6.538 8.361v6h-2c-2 0-2 2-2 2h10c0 0 0-2-2-2h-2v-6l6.538-8.361zM9.4 6c0-0.885 0.716-1.6 1.6-1.6s1.6 0.715 1.6 1.6c0 0.883-0.716 1.6-1.6 1.6s-1.6-0.717-1.6-1.6z"></path>
</symbol>
<symbol id="icon-check" viewBox="0 0 24 24">
<title>check</title>
<path d="M20.7 5.3c-0.4-0.4-1-0.4-1.4 0l-10.3 10.3-4.3-4.3c-0.4-0.4-1-0.4-1.4 0s-0.4 1 0 1.4l5 5c0.2 0.2 0.4 0.3 0.7 0.3s0.5-0.1 0.7-0.3l11-11c0.4-0.4 0.4-1 0-1.4z"></path>
</symbol>
<symbol id="icon-room_service" viewBox="0 0 24 24">
<title>room_service</title>
<path d="M13.828 7.781c3.891 0.797 6.891 4.125 7.172 8.203h-18c0.281-4.078 3.281-7.406 7.172-8.203-0.094-0.234-0.188-0.516-0.188-0.797 0-1.078 0.938-1.969 2.016-1.969s2.016 0.891 2.016 1.969c0 0.281-0.094 0.563-0.188 0.797zM2.016 17.016h19.969v1.969h-19.969v-1.969z"></path>
</symbol>
<symbol id="icon-local_bar" viewBox="0 0 24 24">
<title>local_bar</title>
<path d="M7.453 6.984h9.094l1.781-1.969h-12.656zM21 5.016l-8.016 9v4.969h5.016v2.016h-12v-2.016h5.016v-4.969l-8.016-9v-2.016h18v2.016z"></path>
</symbol>
<symbol id="icon-free_breakfast" viewBox="0 0 24 24">
<title>free_breakfast</title>
<path d="M3.984 18.984h16.031v2.016h-16.031v-2.016zM20.016 8.016v-3h-2.016v3h2.016zM20.016 3c1.125 0 1.969 0.891 1.969 2.016v3c0 1.078-0.844 1.969-1.969 1.969h-2.016v3c0 2.203-1.781 4.031-3.984 4.031h-6c-2.203 0-4.031-1.828-4.031-4.031v-9.984h16.031z"></path>
</symbol>
<symbol id="icon-restaurant" viewBox="0 0 24 24">
<title>restaurant</title>
<path d="M15.984 6c0-1.781 2.25-3.984 5.016-3.984v19.969h-2.484v-7.969h-2.531v-8.016zM11.016 9v-6.984h1.969v6.984c0 2.109-1.641 3.844-3.75 3.984v9h-2.484v-9c-2.109-0.141-3.75-1.875-3.75-3.984v-6.984h2.016v6.984h1.969v-6.984h2.016v6.984h2.016z"></path>
</symbol>
<symbol id="icon-fitness_center" viewBox="0 0 24 24">
<title>fitness_center</title>
<path d="M20.578 14.859l1.406 1.453-2.109 2.109 1.406 1.453-1.406 1.406-1.453-1.406-2.109 2.109-1.453-1.406-1.406 1.406-1.453-1.406 3.563-3.563-8.578-8.578-3.563 3.563-1.406-1.453 1.406-1.406-1.406-1.453 2.109-2.109-1.406-1.453 1.406-1.406 1.453 1.406 2.109-2.109 1.453 1.406 1.406-1.406 1.453 1.406-3.563 3.563 8.578 8.578 3.563-3.563 1.406 1.453z"></path>
</symbol>
<symbol id="icon-local_airport" viewBox="0 0 24 24">
<title>local_airport</title>
<path d="M21 15.984l-8.016-2.484v5.484l2.016 1.5v1.5l-3.516-0.984-3.469 0.984v-1.5l1.969-1.5v-5.484l-7.969 2.484v-1.969l7.969-5.016v-5.484c0-0.844 0.656-1.5 1.5-1.5s1.5 0.656 1.5 1.5v5.484l8.016 5.016v1.969z"></path>
</symbol>
<symbol id="icon-local_parking" viewBox="0 0 24 24">
<title>local_parking</title>
<path d="M13.219 11.016c1.078 0 1.969-0.938 1.969-2.016s-0.891-2.016-1.969-2.016h-3.234v4.031h3.234zM12.984 3c3.328 0 6 2.672 6 6s-2.672 6-6 6h-3v6h-3.984v-18h6.984z"></path>
</symbol>
<symbol id="icon-wi-fi" viewBox="0 0 24 24">
<title>wi-fi</title>
<path d="M13.414 19.412c0.783-0.779 0.783-2.047 0-2.826-0.781-0.785-2.049-0.785-2.828-0.002-0.783 0.783-0.783 2.051 0 2.831 0.781 0.78 2.049 0.781 2.828-0.003z"></path>
<path d="M20.485 11.515c-0.512 0-1.024-0.195-1.414-0.586-3.899-3.899-10.243-3.898-14.143 0-0.782 0.781-2.048 0.78-2.829 0-0.781-0.781-0.781-2.047 0-2.829 5.459-5.458 14.341-5.458 19.799 0 0.781 0.781 0.781 2.047 0 2.828-0.389 0.391-0.901 0.587-1.413 0.587z"></path>
<path d="M7.757 15.757c-0.512 0-1.024-0.195-1.414-0.586-0.781-0.781-0.781-2.047 0-2.828 3.118-3.119 8.194-3.119 11.313 0 0.781 0.781 0.781 2.047 0 2.829s-2.047 0.781-2.829 0c-1.559-1.56-4.097-1.559-5.657 0-0.389 0.39-0.901 0.585-1.413 0.585z"></path>
</symbol>
<symbol id="icon-bed" viewBox="0 0 32 28">
<title>bed</title>
<path d="M4 16h27c0.547 0 1 0.453 1 1v7h-4v-4h-24v4h-4v-19c0-0.547 0.453-1 1-1h2c0.547 0 1 0.453 1 1v11zM13 11c0-2.203-1.797-4-4-4s-4 1.797-4 4 1.797 4 4 4 4-1.797 4-4zM32 15v-1c0-3.313-2.688-6-6-6h-11c-0.547 0-1 0.453-1 1v6h18z"></path>
</symbol>
<symbol id="icon-map-marker" viewBox="0 0 16 28">
<title>map-marker</title>
<path d="M12 10c0-2.203-1.797-4-4-4s-4 1.797-4 4 1.797 4 4 4 4-1.797 4-4zM16 10c0 0.953-0.109 1.937-0.516 2.797l-5.688 12.094c-0.328 0.688-1.047 1.109-1.797 1.109s-1.469-0.422-1.781-1.109l-5.703-12.094c-0.406-0.859-0.516-1.844-0.516-2.797 0-4.422 3.578-8 8-8s8 3.578 8 8z"></path>
</symbol>
<symbol id="icon-star" viewBox="0 0 26 28">
<title>star</title>
<path d="M26 10.109c0 0.281-0.203 0.547-0.406 0.75l-5.672 5.531 1.344 7.812c0.016 0.109 0.016 0.203 0.016 0.313 0 0.406-0.187 0.781-0.641 0.781-0.219 0-0.438-0.078-0.625-0.187l-7.016-3.687-7.016 3.687c-0.203 0.109-0.406 0.187-0.625 0.187-0.453 0-0.656-0.375-0.656-0.781 0-0.109 0.016-0.203 0.031-0.313l1.344-7.812-5.688-5.531c-0.187-0.203-0.391-0.469-0.391-0.75 0-0.469 0.484-0.656 0.875-0.719l7.844-1.141 3.516-7.109c0.141-0.297 0.406-0.641 0.766-0.641s0.625 0.344 0.766 0.641l3.516 7.109 7.844 1.141c0.375 0.063 0.875 0.25 0.875 0.719z"></path>
</symbol>
</defs>
</svg>
